<mxfile host="app.diagrams.net" modified="2022-11-24T09:52:02.082Z" agent="5.0 (Windows)" etag="epb5jO2EI2tNpAgCV7jB" version="20.6.0" type="github">
  <diagram id="kgpKYQtTHZ0yAKxKKP6v" name="Page-1">
    <mxGraphModel dx="1185" dy="750" grid="1" gridSize="10" guides="1" tooltips="1" connect="1" arrows="1" fold="1" page="1" pageScale="1" pageWidth="850" pageHeight="1100" math="0" shadow="0">
      <root>
        <mxCell id="0" />
        <mxCell id="1" parent="0" />
        <mxCell id="YKzM_C4yKJxbXTVwEjFJ-1" value=":BroadcasterPlugin" style="shape=umlLifeline;perimeter=lifelinePerimeter;whiteSpace=wrap;html=1;container=1;collapsible=0;recursiveResize=0;outlineConnect=0;rounded=1;shadow=0;comic=0;labelBackgroundColor=none;strokeWidth=1;fontFamily=Verdana;fontSize=12;align=center;" vertex="1" parent="1">
          <mxGeometry x="240" y="80" width="100" height="840" as="geometry" />
        </mxCell>
        <mxCell id="YKzM_C4yKJxbXTVwEjFJ-2" value="" style="html=1;points=[];perimeter=orthogonalPerimeter;rounded=0;shadow=0;comic=0;labelBackgroundColor=none;strokeWidth=1;fontFamily=Verdana;fontSize=12;align=center;" vertex="1" parent="YKzM_C4yKJxbXTVwEjFJ-1">
          <mxGeometry x="45" y="50" width="10" height="520" as="geometry" />
        </mxCell>
        <mxCell id="YKzM_C4yKJxbXTVwEjFJ-3" value="new surfaceTexture(UnityTexIPtr)" style="curved=1;endArrow=classic;html=1;rounded=0;exitX=0.6;exitY=0.275;exitDx=0;exitDy=0;exitPerimeter=0;" edge="1" parent="YKzM_C4yKJxbXTVwEjFJ-1">
          <mxGeometry width="50" height="50" relative="1" as="geometry">
            <mxPoint x="52" y="221" as="sourcePoint" />
            <mxPoint x="51" y="260" as="targetPoint" />
            <Array as="points">
              <mxPoint x="101" y="250" />
            </Array>
          </mxGeometry>
        </mxCell>
        <mxCell id="YKzM_C4yKJxbXTVwEjFJ-4" value="" style="curved=1;endArrow=classic;html=1;rounded=0;exitX=0.4;exitY=0.493;exitDx=0;exitDy=0;exitPerimeter=0;entryX=0.1;entryY=0.548;entryDx=0;entryDy=0;entryPerimeter=0;" edge="1" parent="YKzM_C4yKJxbXTVwEjFJ-1" source="YKzM_C4yKJxbXTVwEjFJ-2" target="YKzM_C4yKJxbXTVwEjFJ-2">
          <mxGeometry width="50" height="50" relative="1" as="geometry">
            <mxPoint x="300" y="310" as="sourcePoint" />
            <mxPoint x="150" y="330" as="targetPoint" />
            <Array as="points">
              <mxPoint x="100" y="330" />
            </Array>
          </mxGeometry>
        </mxCell>
        <mxCell id="YKzM_C4yKJxbXTVwEjFJ-5" value="initMediaPlayer()" style="edgeLabel;html=1;align=center;verticalAlign=middle;resizable=0;points=[];" vertex="1" connectable="0" parent="YKzM_C4yKJxbXTVwEjFJ-4">
          <mxGeometry x="0.6938" y="-1" relative="1" as="geometry">
            <mxPoint x="48" y="-7" as="offset" />
          </mxGeometry>
        </mxCell>
        <mxCell id="YKzM_C4yKJxbXTVwEjFJ-6" value="" style="curved=1;endArrow=classic;html=1;rounded=0;exitX=0.3;exitY=0.661;exitDx=0;exitDy=0;exitPerimeter=0;entryX=0.3;entryY=0.702;entryDx=0;entryDy=0;entryPerimeter=0;" edge="1" parent="YKzM_C4yKJxbXTVwEjFJ-1" source="YKzM_C4yKJxbXTVwEjFJ-2" target="YKzM_C4yKJxbXTVwEjFJ-2">
          <mxGeometry width="50" height="50" relative="1" as="geometry">
            <mxPoint x="110" y="420" as="sourcePoint" />
            <mxPoint x="90" y="400" as="targetPoint" />
            <Array as="points">
              <mxPoint x="100" y="400" />
            </Array>
          </mxGeometry>
        </mxCell>
        <mxCell id="YKzM_C4yKJxbXTVwEjFJ-7" value="updateTexImage() (from media&lt;br&gt;Player to mSurface and OES)" style="edgeLabel;html=1;align=center;verticalAlign=middle;resizable=0;points=[];" vertex="1" connectable="0" parent="YKzM_C4yKJxbXTVwEjFJ-6">
          <mxGeometry x="0.6701" y="-1" relative="1" as="geometry">
            <mxPoint x="65" y="-20" as="offset" />
          </mxGeometry>
        </mxCell>
        <mxCell id="YKzM_C4yKJxbXTVwEjFJ-8" value="CreateInstance()" style="html=1;verticalAlign=bottom;endArrow=block;labelBackgroundColor=none;fontFamily=Verdana;fontSize=12;edgeStyle=elbowEdgeStyle;elbow=vertical;" edge="1" parent="YKzM_C4yKJxbXTVwEjFJ-1">
          <mxGeometry x="-0.0062" relative="1" as="geometry">
            <mxPoint x="-96" y="70.11999999999989" as="sourcePoint" />
            <mxPoint x="45" y="70" as="targetPoint" />
            <Array as="points">
              <mxPoint x="-26" y="70" />
            </Array>
            <mxPoint as="offset" />
          </mxGeometry>
        </mxCell>
        <mxCell id="YKzM_C4yKJxbXTVwEjFJ-9" value=":UnityEngine" style="shape=umlLifeline;perimeter=lifelinePerimeter;whiteSpace=wrap;html=1;container=1;collapsible=0;recursiveResize=0;outlineConnect=0;rounded=1;shadow=0;comic=0;labelBackgroundColor=none;strokeWidth=1;fontFamily=Verdana;fontSize=12;align=center;" vertex="1" parent="1">
          <mxGeometry x="400" y="80" width="100" height="580" as="geometry" />
        </mxCell>
        <mxCell id="YKzM_C4yKJxbXTVwEjFJ-10" value="" style="html=1;points=[];perimeter=orthogonalPerimeter;rounded=0;shadow=0;comic=0;labelBackgroundColor=none;strokeWidth=1;fontFamily=Verdana;fontSize=12;align=center;" vertex="1" parent="YKzM_C4yKJxbXTVwEjFJ-9">
          <mxGeometry x="45" y="50" width="10" height="480" as="geometry" />
        </mxCell>
        <mxCell id="YKzM_C4yKJxbXTVwEjFJ-11" value=":FBOUtils" style="shape=umlLifeline;perimeter=lifelinePerimeter;whiteSpace=wrap;html=1;container=1;collapsible=0;recursiveResize=0;outlineConnect=0;rounded=1;shadow=0;comic=0;labelBackgroundColor=none;strokeWidth=1;fontFamily=Verdana;fontSize=12;align=center;" vertex="1" parent="1">
          <mxGeometry x="540" y="80" width="100" height="580" as="geometry" />
        </mxCell>
        <mxCell id="YKzM_C4yKJxbXTVwEjFJ-12" value=":FilterFBOTexture" style="shape=umlLifeline;perimeter=lifelinePerimeter;whiteSpace=wrap;html=1;container=1;collapsible=0;recursiveResize=0;outlineConnect=0;rounded=1;shadow=0;comic=0;labelBackgroundColor=none;strokeWidth=1;fontFamily=Verdana;fontSize=12;align=center;" vertex="1" parent="1">
          <mxGeometry x="680" y="80" width="100" height="580" as="geometry" />
        </mxCell>
        <mxCell id="YKzM_C4yKJxbXTVwEjFJ-13" value=":Object" style="shape=umlLifeline;perimeter=lifelinePerimeter;whiteSpace=wrap;html=1;container=1;collapsible=0;recursiveResize=0;outlineConnect=0;rounded=1;shadow=0;comic=0;labelBackgroundColor=none;strokeWidth=1;fontFamily=Verdana;fontSize=12;align=center;" vertex="1" parent="1">
          <mxGeometry x="820" y="80" width="100" height="580" as="geometry" />
        </mxCell>
        <mxCell id="YKzM_C4yKJxbXTVwEjFJ-14" value=":Object" style="shape=umlLifeline;perimeter=lifelinePerimeter;whiteSpace=wrap;html=1;container=1;collapsible=0;recursiveResize=0;outlineConnect=0;rounded=1;shadow=0;comic=0;labelBackgroundColor=none;strokeWidth=1;fontFamily=Verdana;fontSize=12;align=center;" vertex="1" parent="1">
          <mxGeometry x="960" y="80" width="100" height="580" as="geometry" />
        </mxCell>
        <mxCell id="YKzM_C4yKJxbXTVwEjFJ-15" value=":XrEventBroadcaster" style="shape=umlLifeline;perimeter=lifelinePerimeter;whiteSpace=wrap;html=1;container=1;collapsible=0;recursiveResize=0;outlineConnect=0;rounded=1;shadow=0;comic=0;labelBackgroundColor=none;strokeWidth=1;fontFamily=Verdana;fontSize=12;align=center;" vertex="1" parent="1">
          <mxGeometry x="100" y="80" width="100" height="840" as="geometry" />
        </mxCell>
        <mxCell id="YKzM_C4yKJxbXTVwEjFJ-16" value="" style="html=1;points=[];perimeter=orthogonalPerimeter;rounded=0;shadow=0;comic=0;labelBackgroundColor=none;strokeWidth=1;fontFamily=Verdana;fontSize=12;align=center;" vertex="1" parent="YKzM_C4yKJxbXTVwEjFJ-15">
          <mxGeometry x="45" y="100" width="10" height="160" as="geometry" />
        </mxCell>
        <mxCell id="YKzM_C4yKJxbXTVwEjFJ-17" value="new Texture2D()" style="curved=1;endArrow=classic;html=1;rounded=0;exitX=0.2;exitY=0.066;exitDx=0;exitDy=0;exitPerimeter=0;entryX=0.2;entryY=0.125;entryDx=0;entryDy=0;entryPerimeter=0;" edge="1" parent="YKzM_C4yKJxbXTVwEjFJ-15" source="YKzM_C4yKJxbXTVwEjFJ-16" target="YKzM_C4yKJxbXTVwEjFJ-16">
          <mxGeometry x="0.0806" y="24" width="50" height="50" relative="1" as="geometry">
            <mxPoint x="160" y="280" as="sourcePoint" />
            <mxPoint x="210" y="230" as="targetPoint" />
            <Array as="points">
              <mxPoint x="80" y="90" />
              <mxPoint x="90" y="140" />
            </Array>
            <mxPoint as="offset" />
          </mxGeometry>
        </mxCell>
        <mxCell id="YKzM_C4yKJxbXTVwEjFJ-18" value="" style="html=1;points=[];perimeter=orthogonalPerimeter;rounded=0;shadow=0;comic=0;labelBackgroundColor=none;strokeWidth=1;fontFamily=Verdana;fontSize=12;align=center;" vertex="1" parent="YKzM_C4yKJxbXTVwEjFJ-15">
          <mxGeometry x="45" y="310" width="10" height="230" as="geometry" />
        </mxCell>
        <mxCell id="YKzM_C4yKJxbXTVwEjFJ-19" value="" style="html=1;points=[];perimeter=orthogonalPerimeter;rounded=0;shadow=0;comic=0;labelBackgroundColor=none;strokeWidth=1;fontFamily=Verdana;fontSize=12;align=center;" vertex="1" parent="YKzM_C4yKJxbXTVwEjFJ-15">
          <mxGeometry x="45" y="50" width="10" height="30" as="geometry" />
        </mxCell>
        <mxCell id="YKzM_C4yKJxbXTVwEjFJ-20" value="" style="endArrow=classic;html=1;rounded=0;" edge="1" parent="YKzM_C4yKJxbXTVwEjFJ-15">
          <mxGeometry relative="1" as="geometry">
            <mxPoint x="-90" y="60" as="sourcePoint" />
            <mxPoint x="50" y="60" as="targetPoint" />
          </mxGeometry>
        </mxCell>
        <mxCell id="YKzM_C4yKJxbXTVwEjFJ-21" value="Awake()" style="edgeLabel;resizable=0;html=1;align=center;verticalAlign=middle;" connectable="0" vertex="1" parent="YKzM_C4yKJxbXTVwEjFJ-20">
          <mxGeometry relative="1" as="geometry" />
        </mxCell>
        <mxCell id="YKzM_C4yKJxbXTVwEjFJ-22" value="" style="html=1;points=[];perimeter=orthogonalPerimeter;rounded=0;shadow=0;comic=0;labelBackgroundColor=none;strokeWidth=1;fontFamily=Verdana;fontSize=12;align=center;" vertex="1" parent="1">
          <mxGeometry x="585" y="180" width="10" height="380" as="geometry" />
        </mxCell>
        <mxCell id="YKzM_C4yKJxbXTVwEjFJ-23" value="" style="html=1;points=[];perimeter=orthogonalPerimeter;rounded=0;shadow=0;comic=0;labelBackgroundColor=none;strokeWidth=1;fontFamily=Verdana;fontSize=12;align=center;" vertex="1" parent="1">
          <mxGeometry x="725" y="210" width="10" height="380" as="geometry" />
        </mxCell>
        <mxCell id="YKzM_C4yKJxbXTVwEjFJ-24" value="" style="html=1;points=[];perimeter=orthogonalPerimeter;rounded=0;shadow=0;comic=0;labelBackgroundColor=none;strokeColor=#000000;strokeWidth=1;fillColor=#FFFFFF;fontFamily=Verdana;fontSize=12;fontColor=#000000;align=center;" vertex="1" parent="1">
          <mxGeometry x="1005" y="460" width="10" height="30" as="geometry" />
        </mxCell>
        <mxCell id="YKzM_C4yKJxbXTVwEjFJ-25" value="" style="html=1;points=[];perimeter=orthogonalPerimeter;rounded=0;shadow=0;comic=0;labelBackgroundColor=none;strokeWidth=1;fontFamily=Verdana;fontSize=12;align=center;" vertex="1" parent="1">
          <mxGeometry x="870" y="550" width="10" height="60" as="geometry" />
        </mxCell>
        <mxCell id="YKzM_C4yKJxbXTVwEjFJ-26" value="updateTexture()" style="html=1;verticalAlign=bottom;endArrow=block;entryX=0.8;entryY=0.627;labelBackgroundColor=none;fontFamily=Verdana;fontSize=12;edgeStyle=elbowEdgeStyle;elbow=vertical;entryDx=0;entryDy=0;entryPerimeter=0;" edge="1" parent="1" source="YKzM_C4yKJxbXTVwEjFJ-15" target="YKzM_C4yKJxbXTVwEjFJ-2">
          <mxGeometry relative="1" as="geometry">
            <mxPoint x="50" y="400" as="sourcePoint" />
          </mxGeometry>
        </mxCell>
        <mxCell id="YKzM_C4yKJxbXTVwEjFJ-27" value="invalidateState()" style="html=1;verticalAlign=bottom;endArrow=block;labelBackgroundColor=none;fontFamily=Verdana;fontSize=12;edgeStyle=elbowEdgeStyle;elbow=vertical;entryX=0.5;entryY=0.947;entryDx=0;entryDy=0;entryPerimeter=0;" edge="1" parent="1" source="YKzM_C4yKJxbXTVwEjFJ-15" target="YKzM_C4yKJxbXTVwEjFJ-10">
          <mxGeometry relative="1" as="geometry">
            <mxPoint x="370" y="200" as="sourcePoint" />
          </mxGeometry>
        </mxCell>
        <mxCell id="YKzM_C4yKJxbXTVwEjFJ-28" value="Uniy c#" style="shape=note;whiteSpace=wrap;html=1;size=14;verticalAlign=top;align=left;spacingTop=-6;rounded=0;shadow=0;comic=0;labelBackgroundColor=none;strokeWidth=1;fontFamily=Verdana;fontSize=12" vertex="1" parent="1">
          <mxGeometry x="100" y="30" width="100" height="35" as="geometry" />
        </mxCell>
        <mxCell id="YKzM_C4yKJxbXTVwEjFJ-29" value="java module&lt;br style=&quot;font-size: 9px;&quot;&gt;extends Fragment" style="shape=note;whiteSpace=wrap;html=1;size=14;verticalAlign=top;align=left;spacingTop=-6;rounded=0;shadow=0;comic=0;labelBackgroundColor=none;strokeWidth=1;fontFamily=Verdana;fontSize=9;" vertex="1" parent="1">
          <mxGeometry x="240" y="30" width="100" height="35" as="geometry" />
        </mxCell>
        <mxCell id="YKzM_C4yKJxbXTVwEjFJ-30" value="Note" style="shape=note;whiteSpace=wrap;html=1;size=14;verticalAlign=top;align=left;spacingTop=-6;rounded=0;shadow=0;comic=0;labelBackgroundColor=none;strokeWidth=1;fontFamily=Verdana;fontSize=12" vertex="1" parent="1">
          <mxGeometry x="400" y="30" width="100" height="35" as="geometry" />
        </mxCell>
        <mxCell id="YKzM_C4yKJxbXTVwEjFJ-31" value="Generating GLBuffers and returning pointers" style="shape=note;whiteSpace=wrap;html=1;size=14;verticalAlign=top;align=left;spacingTop=-6;rounded=0;shadow=0;comic=0;labelBackgroundColor=none;strokeWidth=1;fontFamily=Verdana;fontSize=9;" vertex="1" parent="1">
          <mxGeometry x="540" y="20" width="100" height="45" as="geometry" />
        </mxCell>
        <mxCell id="YKzM_C4yKJxbXTVwEjFJ-32" value="java module" style="shape=note;whiteSpace=wrap;html=1;size=14;verticalAlign=top;align=left;spacingTop=-6;rounded=0;shadow=0;comic=0;labelBackgroundColor=none;strokeWidth=1;fontFamily=Verdana;fontSize=12" vertex="1" parent="1">
          <mxGeometry x="680" y="30" width="100" height="35" as="geometry" />
        </mxCell>
        <mxCell id="YKzM_C4yKJxbXTVwEjFJ-33" value="Note" style="shape=note;whiteSpace=wrap;html=1;size=14;verticalAlign=top;align=left;spacingTop=-6;rounded=0;shadow=0;comic=0;labelBackgroundColor=none;strokeWidth=1;fontFamily=Verdana;fontSize=12" vertex="1" parent="1">
          <mxGeometry x="820" y="30" width="100" height="35" as="geometry" />
        </mxCell>
        <mxCell id="YKzM_C4yKJxbXTVwEjFJ-34" value="Note" style="shape=note;whiteSpace=wrap;html=1;size=14;verticalAlign=top;align=left;spacingTop=-6;rounded=0;shadow=0;comic=0;labelBackgroundColor=none;strokeWidth=1;fontFamily=Verdana;fontSize=12" vertex="1" parent="1">
          <mxGeometry x="960" y="30" width="100" height="35" as="geometry" />
        </mxCell>
        <mxCell id="YKzM_C4yKJxbXTVwEjFJ-35" value="" style="endArrow=classic;html=1;rounded=0;" edge="1" parent="1">
          <mxGeometry width="50" height="50" relative="1" as="geometry">
            <mxPoint x="10" y="190" as="sourcePoint" />
            <mxPoint x="150" y="190" as="targetPoint" />
            <Array as="points">
              <mxPoint x="90" y="190" />
            </Array>
          </mxGeometry>
        </mxCell>
        <mxCell id="YKzM_C4yKJxbXTVwEjFJ-36" value="Click()" style="edgeLabel;html=1;align=center;verticalAlign=middle;resizable=0;points=[];" vertex="1" connectable="0" parent="YKzM_C4yKJxbXTVwEjFJ-35">
          <mxGeometry x="0.4" y="-3" relative="1" as="geometry">
            <mxPoint x="-28" as="offset" />
          </mxGeometry>
        </mxCell>
        <mxCell id="YKzM_C4yKJxbXTVwEjFJ-37" value="start(UnitytexPtr)" style="html=1;verticalAlign=bottom;endArrow=block;labelBackgroundColor=none;fontFamily=Verdana;fontSize=12;edgeStyle=elbowEdgeStyle;elbow=vertical;" edge="1" parent="1">
          <mxGeometry x="-0.0062" relative="1" as="geometry">
            <mxPoint x="150" y="260.1199999999999" as="sourcePoint" />
            <mxPoint x="291" y="260" as="targetPoint" />
            <Array as="points">
              <mxPoint x="220" y="260" />
            </Array>
            <mxPoint as="offset" />
          </mxGeometry>
        </mxCell>
        <mxCell id="YKzM_C4yKJxbXTVwEjFJ-38" value="Texture2D" style="endArrow=classic;html=1;rounded=0;" edge="1" parent="1" source="YKzM_C4yKJxbXTVwEjFJ-15">
          <mxGeometry relative="1" as="geometry">
            <mxPoint x="-20" y="270" as="sourcePoint" />
            <mxPoint x="10" y="270" as="targetPoint" />
          </mxGeometry>
        </mxCell>
        <mxCell id="YKzM_C4yKJxbXTVwEjFJ-39" value="Texture2D" style="edgeLabel;resizable=0;html=1;align=center;verticalAlign=middle;" connectable="0" vertex="1" parent="YKzM_C4yKJxbXTVwEjFJ-38">
          <mxGeometry relative="1" as="geometry" />
        </mxCell>
        <mxCell id="YKzM_C4yKJxbXTVwEjFJ-40" value="" style="endArrow=classic;html=1;rounded=0;" edge="1" parent="1" source="YKzM_C4yKJxbXTVwEjFJ-15">
          <mxGeometry relative="1" as="geometry">
            <mxPoint x="-40" y="300" as="sourcePoint" />
            <mxPoint x="10" y="300" as="targetPoint" />
          </mxGeometry>
        </mxCell>
        <mxCell id="YKzM_C4yKJxbXTVwEjFJ-41" value="Texure2D" style="edgeLabel;resizable=0;html=1;align=center;verticalAlign=middle;" connectable="0" vertex="1" parent="YKzM_C4yKJxbXTVwEjFJ-40">
          <mxGeometry relative="1" as="geometry" />
        </mxCell>
        <mxCell id="YKzM_C4yKJxbXTVwEjFJ-42" value="" style="endArrow=classic;html=1;rounded=0;entryX=0.5;entryY=0.329;entryDx=0;entryDy=0;entryPerimeter=0;" edge="1" parent="1" source="YKzM_C4yKJxbXTVwEjFJ-1" target="YKzM_C4yKJxbXTVwEjFJ-11">
          <mxGeometry relative="1" as="geometry">
            <mxPoint x="410" y="340" as="sourcePoint" />
            <mxPoint x="510" y="280" as="targetPoint" />
          </mxGeometry>
        </mxCell>
        <mxCell id="YKzM_C4yKJxbXTVwEjFJ-43" value="CreateOESTextureID()" style="edgeLabel;resizable=0;html=1;align=center;verticalAlign=middle;" connectable="0" vertex="1" parent="YKzM_C4yKJxbXTVwEjFJ-42">
          <mxGeometry relative="1" as="geometry" />
        </mxCell>
        <mxCell id="YKzM_C4yKJxbXTVwEjFJ-44" value="" style="endArrow=classic;html=1;rounded=0;entryX=1;entryY=0.306;entryDx=0;entryDy=0;entryPerimeter=0;dashed=1;" edge="1" parent="1" source="YKzM_C4yKJxbXTVwEjFJ-11" target="YKzM_C4yKJxbXTVwEjFJ-2">
          <mxGeometry relative="1" as="geometry">
            <mxPoint x="410" y="340" as="sourcePoint" />
            <mxPoint x="510" y="340" as="targetPoint" />
          </mxGeometry>
        </mxCell>
        <mxCell id="YKzM_C4yKJxbXTVwEjFJ-45" value="OESTexPtr" style="edgeLabel;resizable=0;html=1;align=center;verticalAlign=middle;" connectable="0" vertex="1" parent="YKzM_C4yKJxbXTVwEjFJ-44">
          <mxGeometry relative="1" as="geometry" />
        </mxCell>
        <mxCell id="YKzM_C4yKJxbXTVwEjFJ-46" value="" style="endArrow=classic;html=1;rounded=0;entryX=-0.3;entryY=0.367;entryDx=0;entryDy=0;entryPerimeter=0;" edge="1" parent="1" source="YKzM_C4yKJxbXTVwEjFJ-1" target="YKzM_C4yKJxbXTVwEjFJ-23">
          <mxGeometry relative="1" as="geometry">
            <mxPoint x="410" y="340" as="sourcePoint" />
            <mxPoint x="510" y="340" as="targetPoint" />
          </mxGeometry>
        </mxCell>
        <mxCell id="YKzM_C4yKJxbXTVwEjFJ-47" value="new FilterFBOTexture(UnityTexPtr, OESTexPtr)" style="edgeLabel;resizable=0;html=1;align=center;verticalAlign=middle;" connectable="0" vertex="1" parent="YKzM_C4yKJxbXTVwEjFJ-46">
          <mxGeometry relative="1" as="geometry">
            <mxPoint x="-1" as="offset" />
          </mxGeometry>
        </mxCell>
        <mxCell id="YKzM_C4yKJxbXTVwEjFJ-48" value="" style="endArrow=classic;html=1;rounded=0;entryX=0.2;entryY=0.535;entryDx=0;entryDy=0;entryPerimeter=0;" edge="1" parent="1" source="YKzM_C4yKJxbXTVwEjFJ-12" target="YKzM_C4yKJxbXTVwEjFJ-22">
          <mxGeometry relative="1" as="geometry">
            <mxPoint x="410" y="360" as="sourcePoint" />
            <mxPoint x="510" y="360" as="targetPoint" />
          </mxGeometry>
        </mxCell>
        <mxCell id="YKzM_C4yKJxbXTVwEjFJ-49" value="CreateFBO()" style="edgeLabel;resizable=0;html=1;align=center;verticalAlign=middle;" connectable="0" vertex="1" parent="YKzM_C4yKJxbXTVwEjFJ-48">
          <mxGeometry relative="1" as="geometry" />
        </mxCell>
        <mxCell id="YKzM_C4yKJxbXTVwEjFJ-50" value="" style="endArrow=classic;html=1;rounded=0;entryX=0.2;entryY=0.514;entryDx=0;entryDy=0;entryPerimeter=0;dashed=1;" edge="1" parent="1" source="YKzM_C4yKJxbXTVwEjFJ-11" target="YKzM_C4yKJxbXTVwEjFJ-23">
          <mxGeometry relative="1" as="geometry">
            <mxPoint x="410" y="360" as="sourcePoint" />
            <mxPoint x="510" y="360" as="targetPoint" />
          </mxGeometry>
        </mxCell>
        <mxCell id="YKzM_C4yKJxbXTVwEjFJ-51" value="FBOPtr" style="edgeLabel;resizable=0;html=1;align=center;verticalAlign=middle;" connectable="0" vertex="1" parent="YKzM_C4yKJxbXTVwEjFJ-50">
          <mxGeometry relative="1" as="geometry" />
        </mxCell>
        <mxCell id="YKzM_C4yKJxbXTVwEjFJ-52" value="" style="endArrow=classic;html=1;rounded=0;" edge="1" parent="1">
          <mxGeometry relative="1" as="geometry">
            <mxPoint x="10" y="440" as="sourcePoint" />
            <mxPoint x="150" y="440" as="targetPoint" />
          </mxGeometry>
        </mxCell>
        <mxCell id="YKzM_C4yKJxbXTVwEjFJ-53" value="Update()" style="edgeLabel;resizable=0;html=1;align=center;verticalAlign=middle;" connectable="0" vertex="1" parent="YKzM_C4yKJxbXTVwEjFJ-52">
          <mxGeometry relative="1" as="geometry" />
        </mxCell>
        <mxCell id="YKzM_C4yKJxbXTVwEjFJ-54" value="" style="endArrow=classic;html=1;rounded=0;entryX=0.5;entryY=0.767;entryDx=0;entryDy=0;entryPerimeter=0;" edge="1" parent="1" source="YKzM_C4yKJxbXTVwEjFJ-1" target="YKzM_C4yKJxbXTVwEjFJ-23">
          <mxGeometry relative="1" as="geometry">
            <mxPoint x="360" y="540" as="sourcePoint" />
            <mxPoint x="670" y="410" as="targetPoint" />
          </mxGeometry>
        </mxCell>
        <mxCell id="YKzM_C4yKJxbXTVwEjFJ-55" value="draw()" style="edgeLabel;resizable=0;html=1;align=center;verticalAlign=middle;" connectable="0" vertex="1" parent="YKzM_C4yKJxbXTVwEjFJ-54">
          <mxGeometry relative="1" as="geometry" />
        </mxCell>
        <mxCell id="YKzM_C4yKJxbXTVwEjFJ-57" value="AddFragment()" style="html=1;verticalAlign=bottom;endArrow=block;labelBackgroundColor=none;fontFamily=Verdana;fontSize=12;edgeStyle=elbowEdgeStyle;elbow=vertical;" edge="1" parent="1" target="YKzM_C4yKJxbXTVwEjFJ-9">
          <mxGeometry x="-0.0062" relative="1" as="geometry">
            <mxPoint x="290" y="160.1199999999999" as="sourcePoint" />
            <mxPoint x="431" y="160" as="targetPoint" />
            <Array as="points">
              <mxPoint x="360" y="160" />
            </Array>
            <mxPoint as="offset" />
          </mxGeometry>
        </mxCell>
      </root>
    </mxGraphModel>
  </diagram>
</mxfile>
